HIERARCHY
ROOT Hips
{
	OFFSET 0.000000 8.830580 0.000000
	CHANNELS 6 Xposition Yposition Zposition Zrotation Yrotation Xrotation 
	JOINT Spine
	{
		OFFSET 0.000000 0.010000 0.000000
		CHANNELS 3 Zrotation Yrotation Xrotation
		JOINT Spine1
		{
			OFFSET 0.000000 2.459130 0.000000
			CHANNELS 3 Zrotation Yrotation Xrotation
			JOINT Neck
			{
				OFFSET 0.000000 2.484630 0.000000
				CHANNELS 3 Zrotation Yrotation Xrotation
				JOINT Head_virtual
				{
					OFFSET 0.000000 0.000000 0.000000
					CHANNELS 3 Zrotation Yrotation Xrotation
					JOINT Head
					{
						OFFSET 0.000000 0.927525 0.000000
						CHANNELS 3 Zrotation Yrotation Xrotation
						End Site
						{
							OFFSET 0.000000 0.000000 0.000000
						}
					}
				}
				JOINT LeftUpArm_virtual
				{
					OFFSET 0.000000 0.000000 0.000000
					CHANNELS 3 Zrotation Yrotation Xrotation
					JOINT LeftUpArm
					{
						OFFSET 1.248820 0.000000 0.000000
						CHANNELS 3 Zrotation Yrotation Xrotation
						JOINT LeftForeArm
						{
							OFFSET 2.597580 0.000000 0.000000
							CHANNELS 3 Zrotation Yrotation Xrotation
							JOINT LeftHand
							{
								OFFSET 2.455420 0.000000 0.000000
								CHANNELS 3 Zrotation Yrotation Xrotation
								End Site
								{
									OFFSET 0.000000 0.000000 0.000000
								}
							}
						}
					}
				}
				JOINT RightUpArm_virtual
				{
					OFFSET -0.000000 -0.000000 -0.000000
					CHANNELS 3 Zrotation Yrotation Xrotation
					JOINT RightUpArm
					{
						OFFSET -1.248820 -0.000000 -0.000000
						CHANNELS 3 Zrotation Yrotation Xrotation
						JOINT RightForeArm
						{
							OFFSET -2.597580 -0.000000 -0.000000
							CHANNELS 3 Zrotation Yrotation Xrotation
							JOINT RightHand
							{
								OFFSET -2.455420 -0.000000 -0.000000
								CHANNELS 3 Zrotation Yrotation Xrotation
								End Site
								{
									OFFSET 0.000000 0.000000 0.000000
								}
							}
						}
					}
				}
			}
		}
	}
	JOINT LeftUpLeg
	{
		OFFSET 1.271939 0.000000 0.000000
		CHANNELS 3 Zrotation Yrotation Xrotation
		JOINT LeftLowLeg
		{
			OFFSET 0.000000 -4.342910 0.000000
			CHANNELS 3 Zrotation Yrotation Xrotation
			JOINT LeftFoot
			{
				OFFSET 0.000000 -4.487670 0.000000
				CHANNELS 3 Zrotation Yrotation Xrotation
				JOINT LeftToeBase
				{
					OFFSET 0.000000 0.000000 1.515070
					CHANNELS 3 Zrotation Yrotation Xrotation
					End Site
					{
						OFFSET 0.000000 0.000000 0.000000
					}
				}
			}
		}
	}
	JOINT RightUpLeg
	{
		OFFSET -1.271939 0.000000 0.000000
		CHANNELS 3 Zrotation Yrotation Xrotation
		JOINT RightLowLeg
		{
			OFFSET 0.000000 -4.342910 0.000000
			CHANNELS 3 Zrotation Yrotation Xrotation
			JOINT RightFoot
			{
				OFFSET 0.000000 -4.487670 0.000000
				CHANNELS 3 Zrotation Yrotation Xrotation
				JOINT RightToeBase
				{
					OFFSET 0.000000 0.000000 1.515070
					CHANNELS 3 Zrotation Yrotation Xrotation
					End Site
					{
						OFFSET 0.000000 0.000000 0.000000
					}
				}
			}
		}
	}
}
MOTION
Frames: 8
Frame Time: 0.041667
-17.765213 9.149792 45.012528 -174.672965 5.254599 -169.997570 2.480191 -0.066495 -7.573485 2.523314 0.170843 -12.209155 0.000000 0.000000 0.000000 -5.943376 -2.609518 35.010686 13.862937 9.420964 -82.128149 -27.482401 17.778799 -13.674200 18.591101 -5.674660 -26.602100 0.000000 -10.918800 0.000000 21.542299 7.911710 21.700500 23.551599 -14.410100 -4.862840 -9.650660 -4.708450 -46.316502 0.000000 24.908400 0.000000 -17.740801 -11.442900 35.595600 5.229272 8.349081 -7.354014 0.000000 0.000000 6.451610 -18.223700 5.922801 0.684152 0.000000 0.000000 -29.548100 5.018777 3.888525 -6.995635 0.000000 0.000000 7.740060 14.609102 -17.685488 4.440349 0.000000 0.000000 -32.742100 
-17.762205 9.151121 45.011740 -174.648931 5.306219 -169.959292 2.300645 -0.093560 -7.558580 2.579874 0.166891 -11.905552 0.000000 0.000000 0.000000 -5.586219 -2.954326 35.383578 14.002623 9.862913 -82.000787 -27.507200 18.128099 -14.190600 18.560900 -4.657660 -26.355900 0.000000 -11.692900 0.000000 21.675301 7.969770 21.067600 23.612700 -14.708100 -4.910370 -9.036660 -5.625350 -46.500500 0.000000 25.051701 0.000000 -17.511000 -11.248300 35.514801 5.263405 8.368859 -7.356936 0.000000 0.000000 6.424560 -18.233469 5.965821 0.705521 0.000000 0.000000 -29.529500 5.052585 3.863449 -7.040250 0.000000 0.000000 7.753410 14.554126 -17.635516 4.528226 0.000000 0.000000 -32.786200 
-17.759930 9.152163 45.010250 -174.619136 5.455911 -169.883186 2.096275 -0.063399 -7.551755 2.701154 0.226744 -11.656392 0.000000 0.000000 0.000000 -5.216871 -3.422950 35.802195 14.009880 10.306844 -81.919278 -27.478201 18.442400 -14.424700 18.373199 -3.420580 -26.619600 0.000000 -12.598400 0.000000 21.846701 8.039800 20.942200 23.607300 -15.079200 -5.282440 -8.588730 -6.334580 -46.591999 0.000000 24.923000 0.000000 -17.359501 -11.360900 35.782799 5.280342 8.465316 -7.361530 0.000000 0.000000 6.381230 -18.235591 6.028855 0.706507 0.000000 0.000000 -29.524500 5.069799 3.923755 -7.102373 0.000000 0.000000 7.736250 14.536050 -17.557343 4.605265 0.000000 0.000000 -32.726801 
-17.758784 9.153164 45.009913 -174.579403 5.591803 -169.780649 1.939596 0.004417 -7.534100 2.750389 0.319455 -11.475380 0.000000 0.000000 0.000000 -4.786782 -4.023898 36.217184 14.066587 10.788843 -81.807832 -27.539600 18.750401 -14.849100 18.266800 -2.420290 -26.895700 0.000000 -13.328000 0.000000 21.987900 8.080310 20.345501 23.656401 -15.326600 -5.570260 -8.329380 -7.260440 -46.910301 0.000000 24.671900 0.000000 -17.156799 -11.701700 36.281700 5.302406 8.498630 -7.417590 0.000000 0.000000 6.370180 -18.243617 6.134570 0.673557 0.000000 0.000000 -29.510500 5.096752 3.896088 -7.184050 0.000000 0.000000 7.688960 14.468791 -17.427014 4.736575 0.000000 0.000000 -32.720800 
-17.759032 9.154239 45.007273 -174.546836 5.791119 -169.677398 1.807335 0.122908 -7.566038 2.789716 0.458392 -11.251865 0.000000 0.000000 0.000000 -4.396135 -4.703262 36.629998 14.152781 11.192919 -81.750049 -27.763901 19.142900 -15.439400 18.250601 -1.791100 -27.316900 0.000000 -13.700300 0.000000 22.116199 8.000970 19.551901 23.544901 -15.402600 -5.695710 -7.920260 -8.525030 -47.314800 0.000000 24.545799 0.000000 -17.152500 -11.974900 36.467201 5.294080 8.640108 -7.427934 0.000000 0.000000 6.319400 -18.249438 6.200860 0.661570 0.000000 0.000000 -29.499300 5.094808 3.927945 -7.244088 0.000000 0.000000 7.617200 14.416452 -17.294702 4.865575 0.000000 0.000000 -32.750200 
-17.760255 9.155544 45.005193 -174.520854 5.960208 -169.581606 1.776286 0.294363 -7.561351 2.692436 0.636753 -11.079293 0.000000 0.000000 0.000000 -4.070209 -5.275620 37.011667 14.465082 11.516646 -81.691587 -27.888901 19.553499 -16.063101 18.006100 -1.545620 -28.194700 0.000000 -13.763200 0.000000 22.832500 8.168740 19.103701 23.423000 -15.621800 -5.772500 -7.476390 -9.731590 -47.695999 0.000000 24.592199 0.000000 -17.416100 -12.757900 36.513199 5.279413 8.736296 -7.449471 0.000000 0.000000 6.282790 -18.233791 6.285938 0.658560 0.000000 0.000000 -29.503600 5.091196 3.892117 -7.292721 0.000000 0.000000 7.528600 14.344774 -17.149181 5.019186 0.000000 0.000000 -32.827101 
-17.761865 9.156707 45.004022 -174.499869 6.074701 -169.484965 1.776633 0.405403 -7.564621 2.625632 0.747195 -10.924041 0.000000 0.000000 0.000000 -3.841945 -5.894648 37.438521 14.678638 11.703000 -81.720853 -28.087799 19.878599 -16.655701 17.927799 -1.322930 -29.092100 0.000000 -13.310600 0.000000 23.133301 8.122590 18.890800 23.364700 -15.852300 -5.949430 -7.291170 -10.664600 -48.039600 0.000000 24.450800 0.000000 -17.421801 -13.455400 37.138000 5.268128 8.747982 -7.505760 0.000000 0.000000 6.275320 -18.237011 6.389973 0.633335 0.000000 0.000000 -29.454200 5.087998 3.855684 -7.343052 0.000000 0.000000 7.437370 14.262617 -17.069348 5.154321 0.000000 0.000000 -32.806900 
-17.764230 9.157704 45.001520 -174.492385 6.198858 -169.375897 1.826262 0.515762 -7.599100 2.504089 0.849977 -10.812704 0.000000 0.000000 0.000000 -3.687187 -6.433877 37.897614 14.756117 11.844155 -81.825046 -28.272100 20.114700 -17.069000 17.958700 -1.149100 -29.671200 0.000000 -12.353500 0.000000 23.498600 7.873600 18.697001 23.471800 -16.133600 -6.313770 -7.462760 -11.294100 -48.349800 0.000000 24.142200 0.000000 -17.344601 -14.039300 38.439999 5.229440 8.828415 -7.556429 0.000000 0.000000 6.245050 -18.220081 6.447086 0.636022 0.000000 0.000000 -29.445400 5.059217 3.889744 -7.403249 0.000000 0.000000 7.354880 14.221270 -17.019703 5.248673 0.000000 0.000000 -32.837400 
